HIERARCHY
ROOT Hips
{
 OFFSET 0.000000 0.000000 0.000000
 CHANNELS 6 Xposition Yposition Zposition Yrotation Xrotation Zrotation
 JOINT Chest
 {
  OFFSET 0.000000 9.588913 -0.003946
  CHANNELS 3 Yrotation Xrotation Zrotation
  JOINT Chest2
  {
   OFFSET 0.000000 9.541882 0.008053
   CHANNELS 3 Yrotation Xrotation Zrotation
   JOINT Chest3
   {
    OFFSET 0.000000 9.501360 0.000000
    CHANNELS 3 Yrotation Xrotation Zrotation
    JOINT Chest4
    {
     OFFSET 0.000000 9.491660 0.000000
     CHANNELS 3 Yrotation Xrotation Zrotation
     JOINT Neck
     {
      OFFSET 0.000000 14.331917 0.000000
      CHANNELS 3 Yrotation Xrotation Zrotation
      JOINT Head
      {
       OFFSET 0.000000 8.884799 0.017034
       CHANNELS 3 Yrotation Xrotation Zrotation
       End Site
       {
        OFFSET 0.000000 16.896195 0.008993
       }
      }
     }
     JOINT RightCollar
     {
      OFFSET -2.923010 9.499495 0.000000
      CHANNELS 3 Yrotation Xrotation Zrotation
      JOINT RightShoulder
      {
       OFFSET -13.795216 0.000000 0.000000
       CHANNELS 3 Yrotation Xrotation Zrotation
       JOINT RightElbow
       {
        OFFSET -30.272209 0.000000 0.000000
        CHANNELS 3 Yrotation Xrotation Zrotation
        JOINT RightWrist
        {
         OFFSET -24.478199 0.000000 0.000000
         CHANNELS 3 Yrotation Xrotation Zrotation
         End Site
         {
          OFFSET -18.090752 0.000000 0.000000
         }
        }
       }
      }
     }
     JOINT LeftCollar
     {
      OFFSET 2.923010 9.499495 0.000000
      CHANNELS 3 Yrotation Xrotation Zrotation
      JOINT LeftShoulder
      {
       OFFSET 13.795216 0.000000 0.000000
       CHANNELS 3 Yrotation Xrotation Zrotation
       JOINT LeftElbow
       {
        OFFSET 30.272209 0.000000 0.000000
        CHANNELS 3 Yrotation Xrotation Zrotation
        JOINT LeftWrist
        {
         OFFSET 24.478199 0.000000 0.000000
         CHANNELS 3 Yrotation Xrotation Zrotation
         End Site
         {
          OFFSET 18.090752 0.000000 0.000000
         }
        }
       }
      }
     }
    }
   }
  }
 }
 JOINT RightHip
 {
  OFFSET -7.826875 0.019532 0.001973
  CHANNELS 3 Yrotation Xrotation Zrotation
  JOINT RightKnee
  {
   OFFSET 0.000000 -40.546152 -0.001885
   CHANNELS 3 Yrotation Xrotation Zrotation
   JOINT RightAnkle
   {
    OFFSET 0.000000 -39.417092 -0.003189
    CHANNELS 3 Yrotation Xrotation Zrotation
    JOINT RightToe
    {
     OFFSET 0.000000 -7.579396 17.243563
     CHANNELS 3 Yrotation Xrotation Zrotation
     End Site
     {
      OFFSET 0.000000 -1.500329 6.694466
     }
    }
   }
  }
 }
 JOINT LeftHip
 {
  OFFSET 7.826875 0.019532 0.001973
  CHANNELS 3 Yrotation Xrotation Zrotation
  JOINT LeftKnee
  {
   OFFSET 0.000000 -40.546152 -0.001885
   CHANNELS 3 Yrotation Xrotation Zrotation
   JOINT LeftAnkle
   {
    OFFSET 0.000000 -39.417092 -0.003189
    CHANNELS 3 Yrotation Xrotation Zrotation
    JOINT LeftToe
    {
     OFFSET 0.000000 -7.579396 17.243563
     CHANNELS 3 Yrotation Xrotation Zrotation
     End Site
     {
      OFFSET 0.000000 -1.500329 6.694466
     }
    }
   }
  }
 }
}
MOTION
Frames: 8
Frame Time: 0.008333
0.000000 87.345680 0.000000 0.000000 -5.767889 0.000000 0.000000 11.653876 0.000000 0.000000 -5.885988 0.000000 0.000000 -0.000000 0.000000 0.000000 -0.000000 0.000000 0.000000 12.528808 0.000000 0.000000 0.711711 0.000000 0.000000 -0.000000 0.000000 0.000000 -0.000000 0.000000 2.309063 -0.000000 0.000000 -2.309063 -0.000000 -0.000000 0.000000 -0.000000 0.000000 0.000000 0.000000 0.000000 -2.309063 0.000000 0.000000 2.309063 -0.000000 0.000000 0.000000 8.520374 0.000000 0.000000 1.905768 0.000000 -0.000000 -4.658254 0.000000 0.000000 -0.000000 0.000000 0.000000 8.520374 0.000000 0.000000 1.905768 0.000000 -0.000000 -4.658254 0.000000 0.000000 -0.000000 0.000000
-0.519986 89.209368 -11.344295 150.031915 -8.559408 0.922226 3.207302 3.733157 0.186147 1.834172 2.133821 0.052636 2.293419 2.666928 0.076489 1.834172 2.133821 0.052636 -2.400677 27.726011 0.606591 -2.778819 4.859149 1.212852 -0.084190 0.759552 -1.293685 -10.753496 0.279387 91.678853 4.494694 -0.580715 1.030193 -0.491127 -4.573178 1.045886 -4.705554 0.570802 -0.429853 15.192663 -0.476383 -89.443753 -0.094384 -12.507996 -2.130035 -0.249038 -2.352067 1.642686 -10.934301 10.578461 -2.680077 1.444132 2.327596 0.470930 0.301988 -4.573862 -0.857332 -0.002955 0.067801 -0.003694 -1.743371 8.706700 -0.116126 -0.872485 2.759470 0.134637 -7.319498 -3.540443 -0.025053 0.001063 -0.049551 0.001526
-0.522732 89.209601 -11.339182 150.034552 -8.569982 0.921341 3.205214 3.735320 0.189124 1.832897 2.135615 0.054023 2.291834 2.669164 0.078225 1.832897 2.135615 0.054023 -2.398649 27.727746 0.607456 -2.776798 4.861328 1.213345 -0.079692 0.762355 -1.301759 -10.755322 0.282054 91.686629 4.489969 -0.578872 1.026447 -0.494128 -4.576969 1.047934 -4.710629 0.572745 -0.426958 15.177276 -0.474977 -89.447575 -0.084215 -12.512365 -2.126715 -0.248165 -2.347226 1.644303 -10.930802 10.582924 -2.679015 1.438963 2.332829 0.469764 0.295636 -4.572303 -0.854437 -0.003310 0.066583 -0.005246 -1.736225 8.713920 -0.115417 -0.884433 2.757405 0.134792 -7.315233 -3.535411 -0.026659 0.002170 -0.049412 0.002568
-0.525905 89.209923 -11.333482 150.037758 -8.582969 0.920644 3.202009 3.738606 0.192207 1.831138 2.137905 0.055768 2.289647 2.672017 0.080407 1.831138 2.137905 0.055768 -2.397737 27.729544 0.607799 -2.775890 4.863618 1.213516 -0.073207 0.765584 -1.311285 -10.756764 0.284558 91.693195 4.486718 -0.577180 1.026289 -0.494733 -4.578816 1.049238 -4.714167 0.574367 -0.425431 15.162853 -0.472536 -89.447621 -0.075462 -12.518031 -2.127428 -0.245561 -2.342225 1.647271 -10.928739 10.590206 -2.679577 1.433785 2.336091 0.468848 0.292182 -4.569179 -0.851418 -0.003907 0.065499 -0.006399 -1.732875 8.720647 -0.115185 -0.893252 2.759191 0.137988 -7.321949 -3.530605 -0.029629 0.002873 -0.050393 0.002444
-0.529176 89.210369 -11.327645 150.041293 -8.599379 0.919532 3.198594 3.743910 0.194825 1.829238 2.141084 0.057666 2.287284 2.675982 0.082785 1.829238 2.141084 0.057666 -2.399199 27.730701 0.607998 -2.777561 4.865169 1.214071 -0.065499 0.766921 -1.318872 -10.758493 0.289392 91.697684 4.485379 -0.576016 1.029452 -0.491776 -4.578684 1.047273 -4.720974 0.575136 -0.424417 15.152494 -0.470723 -89.444985 -0.064550 -12.521973 -2.130627 -0.246019 -2.338611 1.649113 -10.926912 10.601995 -2.682214 1.430003 2.337050 0.470142 0.289956 -4.565071 -0.848156 -0.003815 0.064655 -0.007967 -1.733171 8.728998 -0.114044 -0.897280 2.763891 0.140372 -7.334960 -3.526005 -0.031889 0.002346 -0.051987 0.001833
-0.532951 89.210853 -11.321585 150.045360 -8.615271 0.919552 3.195914 3.749318 0.196293 1.827642 2.144009 0.058842 2.285297 2.679633 0.084260 1.827642 2.144009 0.058842 -2.402433 27.731692 0.609542 -2.781496 4.866601 1.216510 -0.061560 0.767792 -1.322733 -10.759690 0.294889 91.702754 4.484937 -0.574143 1.032471 -0.490713 -4.574397 1.042526 -4.729319 0.576416 -0.421444 15.144704 -0.469869 -89.443126 -0.051997 -12.521083 -2.131369 -0.247082 -2.337832 1.648737 -10.926640 10.613074 -2.687141 1.427696 2.337395 0.473513 0.285883 -4.560908 -0.845021 -0.003103 0.064213 -0.009794 -1.734394 8.736191 -0.113283 -0.901625 2.769042 0.139847 -7.346060 -3.520542 -0.031843 0.000664 -0.053701 0.000858
-0.537302 89.211274 -11.314870 150.048856 -8.626417 0.919764 3.193915 3.752616 0.197547 1.826301 2.145756 0.059814 2.283627 2.681812 0.085476 1.826301 2.145756 0.059814 -2.406710 27.733244 0.611569 -2.786699 4.868805 1.219720 -0.062536 0.768628 -1.325174 -10.757426 0.300872 91.710346 4.483640 -0.571402 1.032124 -0.492126 -4.568750 1.038479 -4.733957 0.580071 -0.418700 15.137838 -0.468882 -89.442717 -0.043300 -12.515967 -2.128189 -0.244250 -2.336900 1.647781 -10.927582 10.618301 -2.690330 1.426603 2.338681 0.475656 0.279187 -4.556996 -0.842049 -0.002912 0.064044 -0.010953 -1.731856 8.740121 -0.114231 -0.907326 2.770775 0.139917 -7.348484 -3.513101 -0.030472 -0.000296 -0.054867 -0.000377
-0.541708 89.211686 -11.307776 150.052735 -8.634861 0.918111 3.191732 3.754146 0.199584 1.824713 2.146571 0.061169 2.281650 2.682824 0.087165 1.824713 2.146571 0.061169 -2.409212 27.736454 0.613071 -2.789840 4.873069 1.221948 -0.065321 0.772218 -1.327000 -10.752351 0.307428 91.718351 4.482977 -0.567153 1.028818 -0.492071 -4.565984 1.038929 -4.735029 0.588309 -0.417352 15.135182 -0.469101 -89.442759 -0.037069 -12.502669 -2.125284 -0.240876 -2.340194 1.649473 -10.929137 10.621262 -2.689605 1.424792 2.339231 0.475383 0.272286 -4.551733 -0.839740 -0.003390 0.063214 -0.010780 -1.726121 8.742534 -0.114710 -0.914001 2.770421 0.141244 -7.343699 -3.505330 -0.029042 -0.000100 -0.055067 -0.001290
